# Blender 4.0.2
# www.blender.org
mtllib dragoncube.mtl
o Plane
v -3.897992 -3.897992 0.000000
v 3.897992 -3.897992 0.000000
v -3.897992 3.897992 0.000000
v 3.897992 3.897992 0.000000
vn -0.0000 -0.0000 1.0000
vt 0.000000 0.000000
vt 1.000000 0.000000
vt 1.000000 1.000000
vt 0.000000 1.000000
s 0
usemtl GROUND
f 1/1/1 2/2/1 4/3/1 3/4/1
o Cube
v -0.061487 -0.031017 -0.000087
v -0.061487 -0.031017 0.086065
v -0.061487 0.055135 -0.000087
v -0.061487 0.055135 0.086065
v 0.024665 -0.031017 -0.000087
v 0.024665 -0.031017 0.086065
v 0.024665 0.055135 -0.000087
v 0.024665 0.055135 0.086065
vn -1.0000 -0.0000 -0.0000
vn -0.0000 1.0000 -0.0000
vn 1.0000 -0.0000 -0.0000
vn -0.0000 -1.0000 -0.0000
vn -0.0000 -0.0000 -1.0000
vn -0.0000 -0.0000 1.0000
vt 0.375000 0.000000
vt 0.625000 0.000000
vt 0.625000 0.250000
vt 0.375000 0.250000
vt 0.625000 0.500000
vt 0.375000 0.500000
vt 0.625000 0.750000
vt 0.375000 0.750000
vt 0.625000 1.000000
vt 0.375000 1.000000
vt 0.125000 0.500000
vt 0.125000 0.750000
vt 0.875000 0.500000
vt 0.875000 0.750000
s 0
f 5/5/2 6/6/2 8/7/2 7/8/2
f 7/8/3 8/7/3 12/9/3 11/10/3
f 11/10/4 12/9/4 10/11/4 9/12/4
f 9/12/5 10/11/5 6/13/5 5/14/5
f 7/15/6 11/10/6 9/12/6 5/16/6
f 12/9/7 8/17/7 6/18/7 10/11/7
17909 34823//17916

v -0.3 -0.5 0.200000
v 0 0.000000 0.100000
vn 0.000000 0.000000 1.000000
c -2 -1 -1