{
	"asset":{
		"generator":"Khronos glTF Blender I/O v4.0.44",
		"version":"2.0"
	},
	"extensionsUsed":[
		"KHR_materials_emissive_strength"
	],
	"scene":0,
	"scenes":[
		{
			"name":"Scene",
			"nodes":[
				0,
				1,
				2,
				3
			]
		}
	],
	"nodes":[
		{
			"mesh":0,
			"name":"Plane",
			"scale":[
				0.36600080132484436,
				0.36600080132484436,
				0.36600080132484436
			]
		},
		{
			"camera":0,
			"name":"Camera",
			"rotation":[
				0.6299581527709961,
				-0.06638966500759125,
				-0.0810980424284935,
				0.7695246934890747
			],
			"scale":[
				0.1901395320892334,
				0.1901395469903946,
				0.1901395469903946
			],
			"translation":[
				-0.13736775517463684,
				-0.6285547018051147,
				0.19172675907611847
			]
		},
		{
			"mesh":1,
			"name":"Dragon"
		},
		{
			"mesh":2,
			"name":"Plane.001",
			"scale":[
				0.09044785052537918,
				0.09044785052537918,
				0.09044785052537918
			],
			"translation":[
				0.0057862140238285065,
				0.09616303443908691,
				0.26937922835350037
			]
		}
	],
	"cameras":[
		{
			"name":"Camera",
			"perspective":{
				"aspectRatio":1.3333333333333333,
				"yfov":0.36033553335070556,
				"zfar":100,
				"znear":0.10000000149011612
			},
			"type":"perspective"
		}
	],
	"materials":[
		{
			"doubleSided":true,
			"name":"GROUND",
			"pbrMetallicRoughness":{
				"baseColorFactor":[
					0.8000229597091675,
					0.539573609828949,
					0.14442956447601318,
					1
				],
				"metallicFactor":0,
				"roughnessFactor":0
			}
		},
		{
			"doubleSided":true,
			"name":"DRAGON",
			"pbrMetallicRoughness":{
				"baseColorFactor":[
					0.800000011920929,
					0.800000011920929,
					0.800000011920929,
					1
				],
				"metallicFactor":0,
				"roughnessFactor":0
			}
		},
		{
			"doubleSided":true,
			"emissiveFactor":[
				1,
				1,
				1
			],
			"extensions":{
				"KHR_materials_emissive_strength":{
					"emissiveStrength":3
				}
			},
			"name":"Material",
			"pbrMetallicRoughness":{
				"baseColorFactor":[
					0.800000011920929,
					0.800000011920929,
					0.800000011920929,
					1
				],
				"metallicFactor":0,
				"roughnessFactor":0.5
			}
		}
	],
	"meshes":[
		{
			"name":"Plane",
			"primitives":[
				{
					"attributes":{
						"POSITION":0,
						"NORMAL":1,
						"TEXCOORD_0":2
					},
					"indices":3,
					"material":0
				}
			]
		},
		{
			"name":"Dragon",
			"primitives":[
				{
					"attributes":{
						"POSITION":4,
						"NORMAL":5
					},
					"indices":6,
					"material":1
				}
			]
		},
		{
			"name":"Plane.001",
			"primitives":[
				{
					"attributes":{
						"POSITION":7,
						"NORMAL":8,
						"TEXCOORD_0":9
					},
					"indices":3,
					"material":2
				}
			]
		}
	],
	"accessors":[
		{
			"bufferView":0,
			"componentType":5126,
			"count":4,
			"max":[
				1,
				1,
				0
			],
			"min":[
				-1,
				-1,
				0
			],
			"type":"VEC3"
		},
		{
			"bufferView":1,
			"componentType":5126,
			"count":4,
			"type":"VEC3"
		},
		{
			"bufferView":2,
			"componentType":5126,
			"count":4,
			"type":"VEC2"
		},
		{
			"bufferView":3,
			"componentType":5123,
			"count":6,
			"type":"SCALAR"
		},
		{
			"bufferView":4,
			"componentType":5126,
			"count":69739,
			"max":[
				0.09654387831687927,
				0.0503932386636734,
				0.14443814754486084
			],
			"min":[
				-0.10834388434886932,
				-0.04121911898255348,
				3.628234117059037e-05
			],
			"type":"VEC3"
		},
		{
			"bufferView":5,
			"componentType":5126,
			"count":69739,
			"type":"VEC3"
		},
		{
			"bufferView":6,
			"componentType":5125,
			"count":418434,
			"type":"SCALAR"
		},
		{
			"bufferView":7,
			"componentType":5126,
			"count":4,
			"max":[
				1,
				1,
				0
			],
			"min":[
				-1,
				-1,
				0
			],
			"type":"VEC3"
		},
		{
			"bufferView":8,
			"componentType":5126,
			"count":4,
			"type":"VEC3"
		},
		{
			"bufferView":9,
			"componentType":5126,
			"count":4,
			"type":"VEC2"
		}
	],
	"bufferViews":[
		{
			"buffer":0,
			"byteLength":48,
			"byteOffset":0,
			"target":34962
		},
		{
			"buffer":0,
			"byteLength":48,
			"byteOffset":48,
			"target":34962
		},
		{
			"buffer":0,
			"byteLength":32,
			"byteOffset":96,
			"target":34962
		},
		{
			"buffer":0,
			"byteLength":12,
			"byteOffset":128,
			"target":34963
		},
		{
			"buffer":0,
			"byteLength":836868,
			"byteOffset":140,
			"target":34962
		},
		{
			"buffer":0,
			"byteLength":836868,
			"byteOffset":837008,
			"target":34962
		},
		{
			"buffer":0,
			"byteLength":1673736,
			"byteOffset":1673876,
			"target":34963
		},
		{
			"buffer":0,
			"byteLength":48,
			"byteOffset":3347612,
			"target":34962
		},
		{
			"buffer":0,
			"byteLength":48,
			"byteOffset":3347660,
			"target":34962
		},
		{
			"buffer":0,
			"byteLength":32,
			"byteOffset":3347708,
			"target":34962
		}
	],
	"buffers":[
		{
			"byteLength":3347740,
			"uri":"dragon.bin"
		}
	]
}
