{
	"asset":{
		"generator":"Khronos glTF Blender I/O v4.0.44",
		"version":"2.0"
	},
	"extensionsUsed":[
		"KHR_lights_punctual"
	],
	"extensionsRequired":[
		"KHR_lights_punctual"
	],
	"extensions":{
		"KHR_lights_punctual":{
			"lights":[
				{
					"color":[
						1,
						1,
						1
					],
					"intensity":271.7570653294113,
					"type":"point",
					"name":"Point"
				},
				{
					"color":[
						1,
						1,
						1
					],
					"intensity":1366,
					"type":"directional",
					"name":"Sun"
				}
			]
		}
	},
	"scene":0,
	"scenes":[
		{
			"name":"Scene",
			"nodes":[
				0,
				1,
				2,
				3,
				4
			]
		}
	],
	"nodes":[
		{
			"mesh":0,
			"name":"Cube"
		},
		{
			"camera":0,
			"name":"Camera",
			"rotation":[
				0.5,
				0.5,
				0.5,
				0.5
			],
			"translation":[
				4.107016563415527,
				0,
				0
			]
		},
		{
			"mesh":1,
			"name":"pp-exported.002",
			"rotation":[
				-0.005002109799534082,
				0.005505907349288464,
				0.6724141240119934,
				0.7401377558708191
			],
			"scale":[
				1.2687541246414185,
				1.2687541246414185,
				1.2687541246414185
			],
			"translation":[
				0,
				0,
				-0.9272785186767578
			]
		},
		{
			"extensions":{
				"KHR_lights_punctual":{
					"light":0
				}
			},
			"name":"Point",
			"translation":[
				0.29129457473754883,
				0.4542418122291565,
				0.5518084168434143
			]
		},
		{
			"extensions":{
				"KHR_lights_punctual":{
					"light":1
				}
			},
			"name":"Sun",
			"rotation":[
				0.23479531705379486,
				0.2545164227485657,
				0.3653407096862793,
				0.8640710115432739
			],
			"translation":[
				0,
				-0.46805620193481445,
				0.7157825231552124
			]
		}
	],
	"cameras":[
		{
			"name":"Camera.001",
			"perspective":{
				"aspectRatio":1,
				"yfov":0.6911112070083618,
				"zfar":1000,
				"znear":0.10000000149011612
			},
			"type":"perspective"
		}
	],
	"materials":[
		{
			"doubleSided":true,
			"name":"WHITE",
			"pbrMetallicRoughness":{
				"baseColorFactor":[
					0.800000011920929,
					0.800000011920929,
					0.800000011920929,
					1
				],
				"metallicFactor":0,
				"roughnessFactor":0.5
			}
		},
		{
			"doubleSided":true,
			"name":"RED",
			"pbrMetallicRoughness":{
				"baseColorFactor":[
					1,
					0,
					0,
					1
				],
				"metallicFactor":0,
				"roughnessFactor":0.5
			}
		},
		{
			"doubleSided":true,
			"name":"BLUE",
			"pbrMetallicRoughness":{
				"baseColorFactor":[
					0,
					0,
					1,
					1
				],
				"metallicFactor":0,
				"roughnessFactor":0.5
			}
		},
		{
			"doubleSided":true,
			"name":"WHITE.001",
			"pbrMetallicRoughness":{
				"baseColorFactor":[
					0.800000011920929,
					0.800000011920929,
					0.800000011920929,
					1
				],
				"metallicFactor":0,
				"roughnessFactor":0.5
			}
		}
	],
	"meshes":[
		{
			"name":"Cube.001",
			"primitives":[
				{
					"attributes":{
						"POSITION":0,
						"NORMAL":1,
						"TEXCOORD_0":2
					},
					"indices":3,
					"material":0
				},
				{
					"attributes":{
						"POSITION":4,
						"NORMAL":5,
						"TEXCOORD_0":6
					},
					"indices":7,
					"material":1
				},
				{
					"attributes":{
						"POSITION":8,
						"NORMAL":9,
						"TEXCOORD_0":10
					},
					"indices":11,
					"material":2
				}
			]
		},
		{
			"name":"pp-exported.002",
			"primitives":[
				{
					"attributes":{
						"POSITION":12,
						"NORMAL":13,
						"TEXCOORD_0":14
					},
					"indices":15,
					"material":3
				}
			]
		}
	],
	"accessors":[
		{
			"bufferView":0,
			"componentType":5126,
			"count":12,
			"max":[
				1,
				1,
				1
			],
			"min":[
				-1,
				-1,
				-1
			],
			"type":"VEC3"
		},
		{
			"bufferView":1,
			"componentType":5126,
			"count":12,
			"type":"VEC3"
		},
		{
			"bufferView":2,
			"componentType":5126,
			"count":12,
			"type":"VEC2"
		},
		{
			"bufferView":3,
			"componentType":5123,
			"count":18,
			"type":"SCALAR"
		},
		{
			"bufferView":4,
			"componentType":5126,
			"count":4,
			"max":[
				1,
				-1,
				1
			],
			"min":[
				-1,
				-1,
				-1
			],
			"type":"VEC3"
		},
		{
			"bufferView":5,
			"componentType":5126,
			"count":4,
			"type":"VEC3"
		},
		{
			"bufferView":6,
			"componentType":5126,
			"count":4,
			"type":"VEC2"
		},
		{
			"bufferView":7,
			"componentType":5123,
			"count":6,
			"type":"SCALAR"
		},
		{
			"bufferView":8,
			"componentType":5126,
			"count":4,
			"max":[
				1,
				1,
				1
			],
			"min":[
				-1,
				1,
				-1
			],
			"type":"VEC3"
		},
		{
			"bufferView":9,
			"componentType":5126,
			"count":4,
			"type":"VEC3"
		},
		{
			"bufferView":10,
			"componentType":5126,
			"count":4,
			"type":"VEC2"
		},
		{
			"bufferView":11,
			"componentType":5123,
			"count":6,
			"type":"SCALAR"
		},
		{
			"bufferView":12,
			"componentType":5126,
			"count":182285,
			"max":[
				0.3297273516654968,
				0.3140838146209717,
				1.1006748676300049
			],
			"min":[
				-0.4855581820011139,
				-0.3106273114681244,
				-0.07203955948352814
			],
			"type":"VEC3"
		},
		{
			"bufferView":13,
			"componentType":5126,
			"count":182285,
			"type":"VEC3"
		},
		{
			"bufferView":14,
			"componentType":5126,
			"count":182285,
			"type":"VEC2"
		},
		{
			"bufferView":15,
			"componentType":5125,
			"count":968376,
			"type":"SCALAR"
		}
	],
	"bufferViews":[
		{
			"buffer":0,
			"byteLength":144,
			"byteOffset":0,
			"target":34962
		},
		{
			"buffer":0,
			"byteLength":144,
			"byteOffset":144,
			"target":34962
		},
		{
			"buffer":0,
			"byteLength":96,
			"byteOffset":288,
			"target":34962
		},
		{
			"buffer":0,
			"byteLength":36,
			"byteOffset":384,
			"target":34963
		},
		{
			"buffer":0,
			"byteLength":48,
			"byteOffset":420,
			"target":34962
		},
		{
			"buffer":0,
			"byteLength":48,
			"byteOffset":468,
			"target":34962
		},
		{
			"buffer":0,
			"byteLength":32,
			"byteOffset":516,
			"target":34962
		},
		{
			"buffer":0,
			"byteLength":12,
			"byteOffset":548,
			"target":34963
		},
		{
			"buffer":0,
			"byteLength":48,
			"byteOffset":560,
			"target":34962
		},
		{
			"buffer":0,
			"byteLength":48,
			"byteOffset":608,
			"target":34962
		},
		{
			"buffer":0,
			"byteLength":32,
			"byteOffset":656,
			"target":34962
		},
		{
			"buffer":0,
			"byteLength":12,
			"byteOffset":688,
			"target":34963
		},
		{
			"buffer":0,
			"byteLength":2187420,
			"byteOffset":700,
			"target":34962
		},
		{
			"buffer":0,
			"byteLength":2187420,
			"byteOffset":2188120,
			"target":34962
		},
		{
			"buffer":0,
			"byteLength":1458280,
			"byteOffset":4375540,
			"target":34962
		},
		{
			"buffer":0,
			"byteLength":3873504,
			"byteOffset":5833820,
			"target":34963
		}
	],
	"buffers":[
		{
			"byteLength":9707324,
			"uri":"two_lights.bin"
		}
	]
}
